<?xml version="1.0" encoding="UTF-8" standalone="no"?>
<!-- Created with Inkscape (http://www.inkscape.org/) -->

<svg
   xmlns:dc="http://purl.org/dc/elements/1.1/"
   xmlns:cc="http://creativecommons.org/ns#"
   xmlns:rdf="http://www.w3.org/1999/02/22-rdf-syntax-ns#"
   xmlns:svg="http://www.w3.org/2000/svg"
   xmlns="http://www.w3.org/2000/svg"
   xmlns:sodipodi="http://sodipodi.sourceforge.net/DTD/sodipodi-0.dtd"
   xmlns:inkscape="http://www.inkscape.org/namespaces/inkscape"
   width="1000mm"
   height="300mm"
   viewBox="0 0 1000 300"
   version="1.1"
   id="svg5878"
   sodipodi:docname="header-logo-inkscape.svg"
   inkscape:version="0.92.3 (2405546, 2018-03-11)"
   inkscape:export-filename="/home/edison23/Code/programming/tocjs/assets/logo.png"
   inkscape:export-xdpi="32.509998"
   inkscape:export-ydpi="32.509998">
  <defs
     id="defs5872" />
  <sodipodi:namedview
     id="base"
     pagecolor="#ffffff"
     bordercolor="#666666"
     borderopacity="1.0"
     inkscape:pageopacity="0.0"
     inkscape:pageshadow="2"
     inkscape:zoom="0.35"
     inkscape:cx="1287.4128"
     inkscape:cy="555.09235"
     inkscape:document-units="mm"
     inkscape:current-layer="layer1"
     showgrid="false"
     inkscape:snap-bbox="true"
     inkscape:bbox-paths="true"
     inkscape:bbox-nodes="true"
     inkscape:snap-bbox-edge-midpoints="true"
     inkscape:snap-bbox-midpoints="true"
     showguides="true"
     inkscape:guide-bbox="true"
     inkscape:object-paths="true"
     inkscape:snap-smooth-nodes="true"
     inkscape:snap-page="true"
     inkscape:snap-intersection-paths="true"
     inkscape:snap-midpoints="false"
     inkscape:snap-object-midpoints="true"
     inkscape:snap-center="true"
     inkscape:snap-others="true" />
  <metadata
     id="metadata5875">
    <rdf:RDF>
      <cc:Work
         rdf:about="">
        <dc:format>image/svg+xml</dc:format>
        <dc:type
           rdf:resource="http://purl.org/dc/dcmitype/StillImage" />
        <dc:title />
      </cc:Work>
    </rdf:RDF>
  </metadata>
  <g
     inkscape:label="Layer 1"
     inkscape:groupmode="layer"
     id="layer1"
     transform="translate(0,3)">
    <path
       style="color:#000000;clip-rule:nonzero;display:inline;overflow:visible;visibility:visible;opacity:1;isolation:auto;mix-blend-mode:normal;color-interpolation:sRGB;color-interpolation-filters:linearRGB;solid-color:#000000;solid-opacity:1;fill:none;fill-opacity:1;fill-rule:evenodd;stroke:#770600;stroke-width:9.99146748;stroke-linecap:round;stroke-linejoin:miter;stroke-miterlimit:4;stroke-dasharray:none;stroke-dashoffset:0;stroke-opacity:1;color-rendering:auto;image-rendering:auto;shape-rendering:auto;text-rendering:auto;enable-background:accumulate"
       d="m 123.55297,70.328994 -23.14359,23.14359"
       id="path5880"
       inkscape:connector-curvature="0" />
    <path
       inkscape:connector-curvature="0"
       id="path5882"
       d="m 100.40938,93.472584 23.14359,23.143596"
       style="color:#000000;clip-rule:nonzero;display:inline;overflow:visible;visibility:visible;opacity:1;isolation:auto;mix-blend-mode:normal;color-interpolation:sRGB;color-interpolation-filters:linearRGB;solid-color:#000000;solid-opacity:1;fill:none;fill-opacity:1;fill-rule:evenodd;stroke:#770600;stroke-width:9.99146748;stroke-linecap:round;stroke-linejoin:miter;stroke-miterlimit:4;stroke-dasharray:none;stroke-dashoffset:0;stroke-opacity:1;color-rendering:auto;image-rendering:auto;shape-rendering:auto;text-rendering:auto;enable-background:accumulate" />
    <g
       id="g5898"
       transform="matrix(0.83262231,0,0,0.83262231,89.457436,-36.451069)"
       style="stroke:#770600;stroke-opacity:1">
      <path
         style="color:#000000;clip-rule:nonzero;display:inline;overflow:visible;visibility:visible;opacity:1;isolation:auto;mix-blend-mode:normal;color-interpolation:sRGB;color-interpolation-filters:linearRGB;solid-color:#000000;solid-opacity:1;fill:none;fill-opacity:1;fill-rule:evenodd;stroke:#770600;stroke-width:11.94947052;stroke-linecap:round;stroke-linejoin:miter;stroke-miterlimit:4;stroke-dasharray:none;stroke-dashoffset:0;stroke-opacity:1;color-rendering:auto;image-rendering:auto;shape-rendering:auto;text-rendering:auto;enable-background:accumulate"
         d="m 73.128616,105.30737 -2e-6,83.68864"
         id="path5884"
         inkscape:connector-curvature="0" />
      <path
         sodipodi:nodetypes="ccc"
         inkscape:connector-curvature="0"
         id="path5894"
         d="m 73.128615,144.64904 c 0,0 23.963685,-9.04608 34.924995,1.87822 v 42.46875"
         style="color:#000000;clip-rule:nonzero;display:inline;overflow:visible;visibility:visible;opacity:1;isolation:auto;mix-blend-mode:normal;color-interpolation:sRGB;color-interpolation-filters:linearRGB;solid-color:#000000;solid-opacity:1;fill:none;fill-opacity:1;fill-rule:evenodd;stroke:#770600;stroke-width:11.94947052;stroke-linecap:round;stroke-linejoin:round;stroke-miterlimit:4;stroke-dasharray:none;stroke-dashoffset:0;stroke-opacity:1;color-rendering:auto;image-rendering:auto;shape-rendering:auto;text-rendering:auto;enable-background:accumulate" />
    </g>
    <g
       id="g5910"
       transform="matrix(0.83262231,0,0,0.83262231,84.609422,-36.451069)"
       style="stroke:#770600;stroke-opacity:1">
      <path
         style="color:#000000;clip-rule:nonzero;display:inline;overflow:visible;visibility:visible;opacity:1;isolation:auto;mix-blend-mode:normal;color-interpolation:sRGB;color-interpolation-filters:linearRGB;solid-color:#000000;solid-opacity:1;fill:none;fill-opacity:1;fill-rule:evenodd;stroke:#770600;stroke-width:12;stroke-linecap:round;stroke-linejoin:miter;stroke-miterlimit:4;stroke-dasharray:none;stroke-dashoffset:0;stroke-opacity:1;color-rendering:auto;image-rendering:auto;shape-rendering:auto;text-rendering:auto;enable-background:accumulate"
         d="m 145.97617,128.24549 27.79604,27.79603"
         id="path5900"
         inkscape:connector-curvature="0" />
      <path
         inkscape:connector-curvature="0"
         id="path5902"
         d="m 173.77221,156.04152 -27.79604,27.79603"
         style="color:#000000;clip-rule:nonzero;display:inline;overflow:visible;visibility:visible;opacity:1;isolation:auto;mix-blend-mode:normal;color-interpolation:sRGB;color-interpolation-filters:linearRGB;solid-color:#000000;solid-opacity:1;fill:none;fill-opacity:1;fill-rule:evenodd;stroke:#770600;stroke-width:12;stroke-linecap:round;stroke-linejoin:miter;stroke-miterlimit:4;stroke-dasharray:none;stroke-dashoffset:0;stroke-opacity:1;color-rendering:auto;image-rendering:auto;shape-rendering:auto;text-rendering:auto;enable-background:accumulate" />
    </g>
    <path
       inkscape:connector-curvature="0"
       id="path5932"
       d="m 253.5702,160.21742 -145.09947,-1e-5"
       style="color:#000000;clip-rule:nonzero;display:inline;overflow:visible;visibility:visible;opacity:1;isolation:auto;mix-blend-mode:normal;color-interpolation:sRGB;color-interpolation-filters:linearRGB;solid-color:#000000;solid-opacity:1;fill:none;fill-opacity:1;fill-rule:evenodd;stroke:#505050;stroke-width:10.63847065;stroke-linecap:round;stroke-linejoin:miter;stroke-miterlimit:4;stroke-dasharray:none;stroke-dashoffset:0;stroke-opacity:1;color-rendering:auto;image-rendering:auto;shape-rendering:auto;text-rendering:auto;enable-background:accumulate" />
    <path
       id="path5953"
       d="m 87.869991,160.21741 a 8.4447298,8.4447298 0 0 1 -8.44473,8.44473 8.4447298,8.4447298 0 0 1 -8.44473,-8.44473 8.4447298,8.4447298 0 0 1 8.44473,-8.44473 8.4447298,8.4447298 0 0 1 8.44473,8.44473 z"
       style="opacity:1;fill:#505050;fill-opacity:1;fill-rule:nonzero;stroke:none;stroke-width:20.38876152;stroke-linecap:round;stroke-linejoin:round;stroke-miterlimit:4;stroke-dasharray:none;stroke-dashoffset:0;stroke-opacity:1"
       inkscape:connector-curvature="0" />
    <path
       style="color:#000000;clip-rule:nonzero;display:inline;overflow:visible;visibility:visible;opacity:1;isolation:auto;mix-blend-mode:normal;color-interpolation:sRGB;color-interpolation-filters:linearRGB;solid-color:#000000;solid-opacity:1;fill:none;fill-opacity:1;fill-rule:evenodd;stroke:#505050;stroke-width:10.63847065;stroke-linecap:round;stroke-linejoin:miter;stroke-miterlimit:4;stroke-dasharray:none;stroke-dashoffset:0;stroke-opacity:1;color-rendering:auto;image-rendering:auto;shape-rendering:auto;text-rendering:auto;enable-background:accumulate"
       d="m 253.5702,186.67575 -145.09947,-1e-5"
       id="path5976"
       inkscape:connector-curvature="0" />
    <path
       id="circle5978"
       d="m 87.869991,186.67574 a 8.4447298,8.4447298 0 0 1 -8.44473,8.44473 8.4447298,8.4447298 0 0 1 -8.44473,-8.44473 8.4447298,8.4447298 0 0 1 8.44473,-8.44473 8.4447298,8.4447298 0 0 1 8.44473,8.44473 z"
       style="opacity:1;fill:#505050;fill-opacity:1;fill-rule:nonzero;stroke:none;stroke-width:20.38876152;stroke-linecap:round;stroke-linejoin:round;stroke-miterlimit:4;stroke-dasharray:none;stroke-dashoffset:0;stroke-opacity:1"
       inkscape:connector-curvature="0" />
    <path
       inkscape:connector-curvature="0"
       id="path5982"
       d="m 253.5702,213.13409 -145.09947,-10e-6"
       style="color:#000000;clip-rule:nonzero;display:inline;overflow:visible;visibility:visible;opacity:1;isolation:auto;mix-blend-mode:normal;color-interpolation:sRGB;color-interpolation-filters:linearRGB;solid-color:#000000;solid-opacity:1;fill:none;fill-opacity:1;fill-rule:evenodd;stroke:#505050;stroke-width:10.63847065;stroke-linecap:round;stroke-linejoin:miter;stroke-miterlimit:4;stroke-dasharray:none;stroke-dashoffset:0;stroke-opacity:1;color-rendering:auto;image-rendering:auto;shape-rendering:auto;text-rendering:auto;enable-background:accumulate" />
    <path
       id="circle5984"
       d="m 87.869991,213.13407 a 8.4447298,8.4447298 0 0 1 -8.44473,8.44473 8.4447298,8.4447298 0 0 1 -8.44473,-8.44473 8.4447298,8.4447298 0 0 1 8.44473,-8.44473 8.4447298,8.4447298 0 0 1 8.44473,8.44473 z"
       style="opacity:1;fill:#505050;fill-opacity:1;fill-rule:nonzero;stroke:none;stroke-width:20.38876152;stroke-linecap:round;stroke-linejoin:round;stroke-miterlimit:4;stroke-dasharray:none;stroke-dashoffset:0;stroke-opacity:1"
       inkscape:connector-curvature="0" />
    <g
       id="g861"
       transform="translate(48.977709,-32.937317)">
      <path
         d="m 287.24499,92.657867 q 0,2.818712 1.95142,4.878539 2.05983,1.951416 5.52901,1.951416 h 43.58162 V 231.64204 q 0,3.90283 2.60189,6.17948 2.60189,2.16824 6.17948,2.16824 3.5776,0 6.17949,-2.16824 2.60188,-2.27665 2.60188,-6.17948 V 99.487822 h 42.60592 q 3.57759,0 5.52901,-1.951416 2.05983,-2.059827 2.05983,-4.878539 0,-3.035536 -1.95142,-4.986952 -1.95142,-2.059828 -5.63742,-2.059828 H 294.72542 q -3.46918,0 -5.52901,2.059828 -1.95142,1.951416 -1.95142,4.986952 z"
         style="font-style:normal;font-variant:normal;font-weight:300;font-stretch:normal;font-size:222.02775574px;line-height:123.00000191%;font-family:Nunito;-inkscape-font-specification:'Nunito, Light';font-variant-ligatures:normal;font-variant-caps:normal;font-variant-numeric:normal;font-feature-settings:normal;text-align:start;writing-mode:lr-tb;text-anchor:start;fill:#4d4d4d;fill-opacity:1;fill-rule:nonzero;stroke:none;stroke-width:314.40081787;stroke-linecap:round;stroke-linejoin:round;stroke-miterlimit:4;stroke-dasharray:none;stroke-dashoffset:0;stroke-opacity:1"
         id="path840"
         inkscape:connector-curvature="0" />
      <path
         d="m 443.24985,106.20937 q -19.40575,21.14033 -19.40575,57.45835 0,36.31802 19.40575,57.56677 19.51415,21.14034 52.4714,21.14034 32.95724,0 52.36299,-21.14034 19.51416,-21.24875 19.51416,-57.56677 0,-36.31802 -19.51416,-57.45835 -19.40575,-21.248754 -52.36299,-21.248754 -32.95725,0 -52.4714,21.248754 z m 13.44308,104.9428 q -14.31038,-17.2375 -14.31038,-47.48445 0,-30.24694 14.31038,-47.48445 14.4188,-17.237508 39.02832,-17.237508 24.71793,0 39.02832,17.237508 14.31038,17.12909 14.31038,47.48445 0,30.24695 -14.31038,47.48445 -14.31039,17.23751 -39.02832,17.23751 -24.60952,0 -39.02832,-17.23751 z"
         style="font-style:normal;font-variant:normal;font-weight:300;font-stretch:normal;font-size:222.02775574px;line-height:123.00000191%;font-family:Nunito;-inkscape-font-specification:'Nunito, Light';font-variant-ligatures:normal;font-variant-caps:normal;font-variant-numeric:normal;font-feature-settings:normal;text-align:start;writing-mode:lr-tb;text-anchor:start;fill:#4d4d4d;fill-opacity:1;fill-rule:nonzero;stroke:none;stroke-width:314.40081787;stroke-linecap:round;stroke-linejoin:round;stroke-miterlimit:4;stroke-dasharray:none;stroke-dashoffset:0;stroke-opacity:1"
         id="path842"
         inkscape:connector-curvature="0" />
      <path
         d="m 596.43598,163.99296 q 0,12.79261 2.7103,24.39269 2.7103,11.49168 8.45613,21.46558 5.74584,9.86549 13.87674,17.12909 8.23931,7.15519 19.83939,11.27485 11.7085,4.11966 25.69365,4.11966 22.98334,0 40.7629,-11.7085 5.20378,-3.46918 5.20378,-7.69725 0,-2.60189 -1.95142,-4.33648 -1.843,-1.843 -4.5533,-1.843 -1.843,0 -3.90283,1.19253 -8.67296,5.20377 -16.15339,7.80566 -7.37201,2.60189 -17.34592,2.60189 -11.70849,0 -21.14034,-3.68601 -9.32343,-3.68601 -15.3945,-9.75708 -6.07107,-6.17948 -10.08231,-14.63562 -4.01125,-8.45613 -5.74584,-17.45433 -1.62618,-8.99819 -1.62618,-18.9721 0,-9.86549 1.73459,-18.86368 1.7346,-9.10661 5.74584,-17.56274 4.11965,-8.56455 10.08231,-14.74404 6.07108,-6.28789 15.28609,-9.9739 9.21502,-3.794418 20.70669,-3.794418 3.68601,0 7.04678,0.325236 3.36078,0.216824 5.74584,0.54206 2.49348,0.325232 5.09536,0.975712 2.60189,0.65047 4.01125,1.08412 1.40935,0.32523 3.46918,1.30094 2.05983,0.8673 2.60189,1.19253 0.54206,0.32524 2.27665,1.19253 l 1.73459,0.97571 q 1.95142,0.97571 3.5776,0.97571 2.7103,0 4.33648,-1.95142 1.73459,-2.05982 1.73459,-4.66171 0,-3.68601 -3.14395,-5.529013 -16.69545,-10.407551 -38.81149,-10.407551 -17.45433,0 -31.43948,6.613131 -13.98514,6.613131 -22.6581,17.779563 -8.67296,11.16644 -13.22627,25.15158 -4.5533,13.98515 -4.5533,29.48807 z"
         style="font-style:normal;font-variant:normal;font-weight:300;font-stretch:normal;font-size:222.02775574px;line-height:123.00000191%;font-family:Nunito;-inkscape-font-specification:'Nunito, Light';font-variant-ligatures:normal;font-variant-caps:normal;font-variant-numeric:normal;font-feature-settings:normal;text-align:start;writing-mode:lr-tb;text-anchor:start;fill:#4d4d4d;fill-opacity:1;fill-rule:nonzero;stroke:none;stroke-width:314.40081787;stroke-linecap:round;stroke-linejoin:round;stroke-miterlimit:4;stroke-dasharray:none;stroke-dashoffset:0;stroke-opacity:1"
         id="path844"
         inkscape:connector-curvature="0" />
      <path
         d="m 727.28925,269.91147 q -1.62618,1.95142 -1.62618,4.5533 0,2.60189 1.62618,4.4449 1.51776,1.843 4.33648,1.843 8.23931,0 13.87673,-0.75888 5.63742,-0.75889 9.32343,-3.03554 3.79442,-2.16824 5.85425,-4.44489 2.16824,-2.27665 3.14395,-7.2636 1.08412,-4.87854 1.30094,-9.10661 0.21682,-4.22807 0.21682,-12.14215 V 140.68438 q 0,-3.79442 -2.38506,-5.85425 -2.38506,-2.05983 -5.52901,-2.05983 -3.25236,0 -5.74584,2.05983 -2.38506,2.05983 -2.38506,5.85425 V 248.4459 q 0,7.15519 -0.43365,10.62437 -0.43365,3.5776 -2.60189,5.74584 -2.05982,2.27665 -5.09536,2.7103 -3.03554,0.43364 -9.43184,0.43364 -2.81871,0 -4.44489,1.95142 z M 745.93611,95.042931 q 0,4.770127 3.03553,7.697249 3.03554,2.81871 8.02249,2.81871 5.09536,0 8.1309,-2.92712 3.14395,-2.927124 3.14395,-7.588839 0,-4.661716 -3.14395,-7.480428 -3.03554,-2.927123 -8.02249,-2.927123 -4.98695,0 -8.1309,2.927123 -3.03553,2.818712 -3.03553,7.480428 z"
         style="font-style:normal;font-variant:normal;font-weight:300;font-stretch:normal;font-size:222.02775574px;line-height:123.00000191%;font-family:Nunito;-inkscape-font-specification:'Nunito, Light';font-variant-ligatures:normal;font-variant-caps:normal;font-variant-numeric:normal;font-feature-settings:normal;text-align:start;writing-mode:lr-tb;text-anchor:start;fill:#4d4d4d;fill-opacity:1;fill-rule:nonzero;stroke:none;stroke-width:314.40081787;stroke-linecap:round;stroke-linejoin:round;stroke-miterlimit:4;stroke-dasharray:none;stroke-dashoffset:0;stroke-opacity:1"
         id="path846"
         inkscape:connector-curvature="0" />
      <path
         d="m 795.69723,159.33124 q 0,5.63742 1.51776,9.86549 1.62618,4.22807 4.01125,6.93837 2.38506,2.7103 6.72154,4.98695 4.44489,2.16824 8.56455,3.46918 4.11965,1.19254 10.62437,2.81872 l 20.38146,4.87854 q 10.40755,2.49347 14.63562,6.82995 4.33648,4.22807 4.33648,11.81691 0,9.75708 -7.37202,14.96085 -7.37201,5.20378 -20.27304,5.31219 -17.67116,0 -32.84883,-9.43184 -2.38507,-1.40936 -4.55331,-1.51777 -2.38506,0 -4.01124,1.62618 -1.51777,1.62618 -1.51777,3.79442 0,2.92712 2.92712,5.09536 6.07108,4.44489 17.1291,8.02249 11.05802,3.46918 22.11605,3.46918 18.75527,-0.10841 30.35535,-8.34772 11.60009,-8.23931 11.60009,-24.60952 0,-10.8412 -6.50472,-18.32163 -6.39631,-7.48043 -22.22446,-11.38326 l -19.8394,-4.87854 q -13.22626,-3.14394 -17.02068,-5.96266 -3.79442,-2.81871 -3.79442,-9.9739 0,-17.45433 28.29553,-17.45433 3.79442,0 7.48043,0.54206 3.68601,0.43365 7.04678,1.40936 3.46918,0.9757 5.74583,1.73459 2.27666,0.75888 5.20378,1.95141 2.92712,1.19254 3.57759,1.40936 1.84301,0.54206 2.92713,0.54206 2.38506,0 3.79442,-1.51777 1.40935,-1.51777 1.40935,-3.57759 0,-3.36078 -3.36077,-5.31219 -5.4206,-2.92713 -14.96085,-5.52901 -9.54026,-2.7103 -19.8394,-2.7103 -8.34772,0 -15.61132,1.51777 -7.15519,1.51776 -13.33468,4.77012 -6.17948,3.25236 -9.75708,9.10661 -3.57759,5.74584 -3.57759,13.65991 z"
         style="font-style:normal;font-variant:normal;font-weight:300;font-stretch:normal;font-size:222.02775574px;line-height:123.00000191%;font-family:Nunito;-inkscape-font-specification:'Nunito, Light';font-variant-ligatures:normal;font-variant-caps:normal;font-variant-numeric:normal;font-feature-settings:normal;text-align:start;writing-mode:lr-tb;text-anchor:start;fill:#4d4d4d;fill-opacity:1;fill-rule:nonzero;stroke:none;stroke-width:314.40081787;stroke-linecap:round;stroke-linejoin:round;stroke-miterlimit:4;stroke-dasharray:none;stroke-dashoffset:0;stroke-opacity:1"
         id="path848"
         inkscape:connector-curvature="0" />
    </g>
  </g>
</svg>
